<?xml version="1.0" standalone="no"?>
<!DOCTYPE svg PUBLIC "-//W3C//DTD SVG 20010904//EN"
 "http://www.w3.org/TR/2001/REC-SVG-20010904/DTD/svg10.dtd">
<svg version="1.0" xmlns="http://www.w3.org/2000/svg"
 width="278.000000pt" height="279.000000pt" viewBox="0 0 278.000000 279.000000"
 preserveAspectRatio="xMidYMid meet">

<g transform="translate(0.000000,279.000000) scale(0.100000,-0.100000)"
fill="#000000" stroke="none">
<path d="M480 1830 c0 -19 7 -20 125 -20 l125 0 0 -330 0 -330 60 0 60 0 0
330 0 330 125 0 c118 0 125 1 125 20 0 20 -7 20 -310 20 -303 0 -310 0 -310
-20z"/>
<path d="M1210 1500 l0 -350 25 0 25 0 0 285 c0 157 4 285 8 285 5 0 73 -128
153 -285 79 -156 149 -285 154 -285 6 0 76 130 157 288 l148 287 0 -287 0
-288 60 0 60 0 0 350 0 350 -61 0 -60 0 -131 -270 c-73 -148 -134 -270 -137
-270 -4 0 -67 122 -141 270 l-135 270 -62 0 -63 0 0 -350z"/>
<path d="M2180 1500 l0 -350 55 0 55 0 0 350 0 350 -55 0 -55 0 0 -350z"/>
</g>
</svg>
